# xmcd
#
# Track frame offsets:
#	150
#	16036
#	31919
#	46555
#	60272
#	77689
#	95480
#	111575
#	125586
#	140535
#	158489
#	173420
#
# Disc length: 2557 seconds
# Revision: 0
# Processed by: cddbd v1.5.2PL0 Copyright (c) Steve Scherf et al.
# Submitted via: dBpowerAMP V12.0
#
DISCID=8409fb0c
DTITLE=Lisa Matassa - Sunrise Highway
DYEAR=2011
DGENRE=Country
TTITLE0=Wouldn't You Like To Know
TTITLE1=Somebody's Baby
TTITLE2=I Don't Feel Anything
TTITLE3=Me Time
TTITLE4=Kiss Me Quiet
TTITLE5=Sunrise Highway
TTITLE6=Transparent
TTITLE7=Girl With A Rock 'N Roll Heart
TTITLE8=Wanna Be Your Every Night
TTITLE9=Learning As You Grow
TTITLE10=Thicker Than Blood
TTITLE11=Heaven
EXTD=
EXTT0=
EXTT1=
EXTT2=
EXTT3=
EXTT4=
EXTT5=
EXTT6=
EXTT7=
EXTT8=
EXTT9=
EXTT10=
EXTT11=
PLAYORDER=
